<?xml version="1.0" encoding="UTF-8"?>
<svg width="8000" height="2000" viewBox="0 0 8000 2000" fill="none" xmlns="http://www.w3.org/2000/svg">
<g clip-path="url(#clip0_6369_1997)">
<path d="M1120.87 1150.75L838.336 1007.08L1120.87 1334.31V1150.75Z" fill="#05209A"/>
<path d="M1120.18 1150.75L1402.72 1007.08L1120.18 1334.31V1150.75Z" fill="#001882"/>
<rect x="598.851" y="1505.3" width="1037.81" height="68.695" fill="#011671"/>
<rect x="598.851" y="1388.6" width="1037.81" height="68.695" fill="#011671"/>
<path d="M950.45 1278.17L988.491 1328.03H673.824L397.936 686.505L793.116 841.623L756.553 890.005L518.706 798.411L725.529 1278.17H950.45Z" fill="#011671"/>
<path d="M1248.87 1329.51L1290.97 1273.74H1515.15L1726.04 789.688L1483.76 882.389L1449.41 834.746L1840.9 686.646L1564.64 1329.51H1248.87Z" fill="#011671"/>
<path d="M1119.76 494.985V785.646L812.482 922.667L1119.76 494.985Z" fill="#05209A"/>
<path d="M1119.76 494.985V785.646L1427.04 922.667L1119.76 494.985Z" fill="#001882"/>
<path d="M1119.76 1075.04V784.376L1427.04 921.766L1119.76 1075.04Z" fill="#00125E"/>
<path d="M1119.76 1075.04V784.376L812.483 921.766L1119.76 1075.04Z" fill="#011671"/>
<path d="M412.092 637.636L398.689 687.242L349.027 674.046L338.532 583.048L412.092 637.636Z" fill="#011671"/>
<path d="M1828.05 637.636L1841.46 687.242L1891.12 674.046L1901.61 583.048L1828.05 637.636Z" fill="#011671"/>
<path d="M1177.27 438.659L1119.68 495.885L1062.08 438.659L1119.68 306L1177.27 438.659Z" fill="#011671"/>
<rect x="2192" y="430" width="50" height="1141" fill="#011671"/>
<path d="M3014.49 974.298L3215.96 1304H3037.26L2915.09 1096.85L2747.01 1304H2604.74V734.895H2761.43V1093.05L3041.81 734.895H3208.37L3014.49 974.298ZM3334.95 1131.37C3345.57 1154.39 3363.53 1172.09 3388.82 1184.49C3414.12 1196.63 3445.99 1202.7 3484.43 1202.7C3516.3 1202.7 3548.05 1198.53 3579.66 1190.18C3611.28 1181.83 3640.11 1169.94 3666.17 1154.52V1253.16C3635.81 1273.65 3601.54 1289.33 3563.35 1300.21C3525.16 1311.08 3484.18 1316.52 3440.42 1316.52C3388.06 1316.52 3341.14 1306.91 3299.66 1287.69C3258.18 1268.21 3225.68 1241.02 3202.16 1206.11C3178.63 1171.21 3166.87 1131.12 3166.87 1085.84C3166.87 1041.33 3178.13 1001.74 3200.64 967.09C3223.4 932.438 3254.77 905.626 3294.73 886.656C3334.69 867.433 3379.72 857.821 3429.8 857.821C3480.64 857.821 3524.65 869.077 3561.83 891.588C3599.01 913.847 3627.47 945.59 3647.2 986.819C3667.18 1027.79 3677.17 1075.98 3677.17 1131.37H3334.95ZM3433.21 967.09C3406.65 967.09 3384.14 973.54 3365.68 986.439C3347.47 999.086 3334.95 1016.29 3328.12 1038.04H3533C3525.91 1015.27 3513.77 997.821 3496.57 985.681C3479.63 973.287 3458.51 967.09 3433.21 967.09ZM4033.77 857.821C4074.74 857.821 4110.03 866.168 4139.62 882.862C4169.22 899.303 4191.73 922.826 4207.16 953.431C4222.58 984.036 4230.3 1020.08 4230.3 1061.56V1304H4075.5V1084.33C4075.5 1051.95 4067.28 1027.16 4050.84 1009.96C4034.4 992.763 4010.75 984.163 3979.89 984.163C3958.39 984.163 3939.68 988.716 3923.74 997.821C3908.06 1006.67 3895.92 1019.57 3887.32 1036.52C3878.97 1053.21 3874.8 1072.82 3874.8 1095.33V1304H3719.62V1020.21L3691.17 870.342H3846.34L3861.14 960.64C3879.86 927.252 3904.14 901.832 3933.98 884.38C3964.08 866.674 3997.35 857.821 4033.77 857.821ZM4280.05 1304V863.892L4357.45 879.068L4435.22 863.892V1304H4280.05ZM4357.45 828.607C4339.49 828.607 4323.68 825.572 4310.02 819.502C4296.36 813.178 4285.74 804.325 4278.15 792.943C4270.56 781.561 4266.77 768.282 4266.77 753.106C4266.77 737.93 4270.56 724.777 4278.15 713.648C4285.74 702.266 4296.36 693.539 4310.02 687.469C4323.68 681.146 4339.49 677.984 4357.45 677.984C4375.41 677.984 4391.21 681.146 4404.87 687.469C4418.53 693.539 4429.03 702.266 4436.36 713.648C4443.95 724.777 4447.75 737.93 4447.75 753.106C4447.75 768.282 4443.95 781.561 4436.36 792.943C4429.03 804.325 4418.53 813.178 4404.87 819.502C4391.21 825.572 4375.41 828.607 4357.45 828.607ZM4868.79 870.342H5023.59V1188.66C5023.59 1241.02 5011.32 1286.17 4986.79 1324.11C4962.25 1362.3 4927.6 1391.39 4882.83 1411.37C4838.06 1431.61 4785.83 1441.72 4726.14 1441.72C4686.68 1441.72 4649.88 1436.67 4615.73 1426.55C4581.84 1416.43 4547.69 1400.87 4513.29 1379.88V1262.65C4543.39 1285.16 4575.64 1301.85 4610.04 1312.73C4644.44 1323.6 4679.98 1329.04 4716.65 1329.04C4766.74 1329.04 4804.55 1318.16 4830.1 1296.41C4855.89 1274.66 4868.79 1240.77 4868.79 1194.73V1179.56C4846.54 1203.33 4819.6 1222.43 4787.98 1236.85C4756.36 1251.26 4721.33 1258.47 4682.89 1258.47C4642.42 1258.47 4606.12 1250.13 4574 1233.43C4541.87 1216.74 4516.58 1193.21 4498.12 1162.86C4479.91 1132.51 4470.8 1097.6 4470.8 1058.15C4470.8 1018.69 4479.91 983.784 4498.12 953.431C4516.58 923.079 4541.87 899.556 4574 882.862C4606.12 866.168 4642.42 857.821 4682.89 857.821C4721.08 857.821 4755.99 865.536 4787.6 880.965C4819.22 896.141 4846.28 916.123 4868.79 940.911V870.342ZM4735.24 1152.62C4795.7 1152.62 4841.86 1121.13 4873.73 1058.15C4841.6 994.913 4795.44 963.296 4735.24 963.296C4713.24 963.296 4694.02 967.216 4677.58 975.057C4661.39 982.645 4648.87 993.648 4640.01 1008.07C4631.16 1022.23 4626.73 1038.92 4626.73 1058.15C4626.73 1087.23 4636.22 1110.25 4655.19 1127.2C4674.41 1144.14 4701.1 1152.62 4735.24 1152.62ZM5219.04 1117.33C5222.58 1141.36 5237 1160.33 5262.29 1174.24C5287.58 1187.9 5320.97 1194.73 5362.45 1194.73C5401.4 1194.73 5431.76 1189.67 5453.51 1179.56C5475.51 1169.44 5486.52 1155.02 5486.52 1136.3C5486.52 1126.19 5483.74 1117.84 5478.17 1111.26C5472.61 1104.43 5463.12 1098.87 5449.72 1094.57C5436.56 1090.27 5418.22 1086.98 5394.7 1084.7L5289.23 1074.84C5211.58 1067.76 5154.79 1050.31 5118.88 1022.48C5083.21 994.407 5065.38 955.455 5065.38 905.626C5065.38 866.927 5076.76 833.919 5099.53 806.602C5122.29 779.032 5154.41 758.165 5195.89 744C5237.63 729.583 5286.57 722.374 5342.72 722.374C5396.85 722.374 5445.29 730.215 5488.04 745.897C5530.78 761.579 5564.55 783.585 5589.34 811.914C5614.38 840.242 5628.16 872.998 5630.69 910.179H5470.58C5467.8 889.691 5454.9 873.63 5431.88 861.995C5409.12 850.107 5378.39 844.163 5339.69 844.163C5303.77 844.163 5275.57 848.969 5255.08 858.58C5234.85 868.192 5224.73 881.85 5224.73 899.556C5224.73 913.467 5231.05 924.344 5243.7 932.185C5256.35 939.773 5278.48 945.211 5310.09 948.499L5423.54 959.502C5477.41 964.56 5520.54 973.287 5552.91 985.681C5585.29 998.074 5608.81 1015.02 5623.48 1036.52C5638.15 1058.02 5645.49 1085.21 5645.49 1118.09C5645.49 1157.55 5633.6 1192.33 5609.82 1222.43C5586.05 1252.28 5552.53 1275.42 5509.28 1291.86C5466.03 1308.3 5416.08 1316.52 5359.42 1316.52C5300.99 1316.52 5249.26 1308.3 5204.24 1291.86C5159.22 1275.17 5124.06 1251.77 5098.77 1221.67C5073.47 1191.57 5060.19 1156.79 5058.93 1117.33H5219.04ZM6236.75 1149.96L6335.77 870.342H6490.95L6328.94 1304H6170.73L6060.7 1012.24L5949.16 1304H5790.95L5629.32 870.342H5784.88L5883.9 1149.2L5987.1 870.342H6134.69L6236.75 1149.96ZM7041.19 870.342L7013.87 1086.98L7041.19 1304H6880.32L6868.94 1216.36C6847.95 1248.23 6821.77 1272.89 6790.4 1290.34C6759.04 1307.79 6724.01 1316.52 6685.31 1316.52C6643.32 1316.52 6606.01 1307.04 6573.39 1288.07C6541.01 1268.84 6515.84 1241.9 6497.88 1207.25C6479.93 1172.35 6470.95 1132.38 6470.95 1087.36C6470.95 1042.09 6479.93 1002.12 6497.88 967.469C6515.84 932.564 6541.01 905.626 6573.39 886.656C6606.01 867.433 6643.32 857.821 6685.31 857.821C6723.76 857.821 6758.79 866.421 6790.4 883.621C6822.02 900.821 6848.33 925.229 6869.32 956.846L6880.32 870.342H7041.19ZM6731.98 1197.77C6752.46 1197.77 6772.07 1193.09 6790.78 1183.73C6809.75 1174.12 6826.32 1160.97 6840.49 1144.27C6854.9 1127.58 6865.65 1108.61 6872.74 1087.36C6865.65 1066.11 6854.9 1047.14 6840.49 1030.45C6826.32 1013.5 6809.75 1000.35 6790.78 990.992C6772.07 981.381 6752.46 976.575 6731.98 976.575C6711.74 976.575 6693.66 981.381 6677.72 990.992C6662.04 1000.35 6649.77 1013.5 6640.92 1030.45C6632.07 1047.14 6627.64 1066.11 6627.64 1087.36C6627.64 1108.61 6632.07 1127.58 6640.92 1144.27C6649.77 1160.97 6662.04 1174.12 6677.72 1183.73C6693.66 1193.09 6711.74 1197.77 6731.98 1197.77ZM7422.62 857.821C7464.61 857.821 7501.79 867.433 7534.17 886.656C7566.8 905.626 7592.09 932.564 7610.05 967.469C7628.01 1002.12 7636.99 1042.09 7636.99 1087.36C7636.99 1132.38 7628.01 1172.35 7610.05 1207.25C7592.09 1241.9 7566.8 1268.84 7534.17 1288.07C7501.79 1307.04 7464.61 1316.52 7422.62 1316.52C7384.68 1316.52 7350.16 1308.05 7319.04 1291.1C7287.93 1274.15 7261.88 1250.25 7240.89 1219.39V1429.2H7085.71V870.342H7240.89V953.431C7262.13 922.826 7288.19 899.303 7319.04 882.862C7350.16 866.168 7384.68 857.821 7422.62 857.821ZM7375.96 1197.77C7396.19 1197.77 7414.15 1193.09 7429.83 1183.73C7445.77 1174.12 7458.16 1160.97 7467.01 1144.27C7475.87 1127.58 7480.29 1108.61 7480.29 1087.36C7480.29 1066.11 7475.87 1047.14 7467.01 1030.45C7458.16 1013.5 7445.77 1000.35 7429.83 990.992C7414.15 981.381 7396.19 976.575 7375.96 976.575C7355.47 976.575 7335.74 981.381 7316.77 990.992C7298.05 1000.35 7281.48 1013.5 7267.07 1030.45C7252.9 1047.14 7242.15 1066.11 7234.82 1087.36C7242.15 1108.61 7252.9 1127.58 7267.07 1144.27C7281.48 1160.97 7298.05 1174.12 7316.77 1183.73C7335.74 1193.09 7355.47 1197.77 7375.96 1197.77Z" fill="#011671"/>
</g>
<defs>
<clipPath id="clip0_6369_1997">
<rect width="2000" height="8000" fill="white" transform="translate(0 2000) rotate(-90)"/>
</clipPath>
</defs>
</svg>