<svg width="2000" height="2000" viewBox="0 0 2000 2000" fill="none" xmlns="http://www.w3.org/2000/svg">
<path d="M1000.4 1048.16L755.519 923.641L1000.4 1207.25V1048.16Z" fill="#05209A"/>
<path d="M999.798 1048.16L1244.68 923.641L999.798 1207.25V1048.16Z" fill="#001882"/>
<rect x="547.952" y="1355.46" width="899.491" height="59.5393" fill="#011671"/>
<rect x="547.952" y="1254.31" width="899.491" height="59.5393" fill="#011671"/>
<path d="M852.69 1158.6L885.661 1201.81H612.933L373.815 645.791L716.326 780.235L684.636 822.168L478.489 742.782L657.747 1158.6H852.69Z" fill="#011671"/>
<path d="M1111.33 1203.09L1147.83 1154.76H1342.13L1524.91 735.222L1314.92 815.568L1285.15 774.274L1624.46 645.913L1385.02 1203.09H1111.33Z" fill="#011671"/>
<path d="M999.438 479.797V731.719L733.111 850.477L999.438 479.797Z" fill="#05209A"/>
<path d="M999.437 479.797V731.719L1265.76 850.477L999.437 479.797Z" fill="#001882"/>
<path d="M999.438 982.54V730.618L1265.76 849.697L999.438 982.54Z" fill="#00125E"/>
<path d="M999.438 982.54V730.618L733.112 849.697L999.438 982.54Z" fill="#011671"/>
<path d="M386.085 603.436L374.468 646.43L331.426 634.993L322.33 556.123L386.085 603.436Z" fill="#011671"/>
<path d="M1613.33 603.436L1624.94 646.43L1667.99 634.993L1677.08 556.123L1613.33 603.436Z" fill="#011671"/>
<path d="M1049.28 430.978L999.364 480.577L949.445 430.978L999.364 316L1049.28 430.978Z" fill="#011671"/>
<path d="M496.234 1568.7L544.688 1648H501.709L472.326 1598.18L431.902 1648H397.684V1511.12H435.37V1597.26L502.804 1511.12H542.863L496.234 1568.7ZM573.306 1606.48C575.861 1612.02 580.18 1616.28 586.263 1619.26C592.347 1622.18 600.012 1623.64 609.258 1623.64C616.923 1623.64 624.558 1622.63 632.162 1620.62C639.766 1618.62 646.701 1615.76 652.967 1612.05V1635.77C645.667 1640.7 637.424 1644.47 628.238 1647.09C619.052 1649.7 609.197 1651.01 598.673 1651.01C586.081 1651.01 574.796 1648.7 564.82 1644.08C554.843 1639.39 547.026 1632.85 541.368 1624.46C535.711 1616.06 532.882 1606.42 532.882 1595.53C532.882 1584.82 535.589 1575.3 541.003 1566.97C546.478 1558.64 554.022 1552.19 563.633 1547.62C573.245 1543 584.073 1540.69 596.118 1540.69C608.346 1540.69 618.931 1543.4 627.873 1548.81C636.816 1554.16 643.66 1561.8 648.405 1571.71C653.21 1581.57 655.613 1593.16 655.613 1606.48H573.306ZM596.94 1566.97C590.552 1566.97 585.138 1568.52 580.697 1571.62C576.317 1574.67 573.306 1578.8 571.663 1584.03H620.938C619.235 1578.56 616.315 1574.36 612.178 1571.44C608.102 1568.46 603.023 1566.97 596.94 1566.97ZM741.378 1540.69C751.233 1540.69 759.72 1542.7 766.837 1546.71C773.955 1550.67 779.369 1556.32 783.08 1563.68C786.79 1571.05 788.646 1579.71 788.646 1589.69V1648H751.416V1595.17C751.416 1587.38 749.439 1581.42 745.485 1577.28C741.53 1573.14 735.842 1571.08 728.421 1571.08C723.25 1571.08 718.748 1572.17 714.916 1574.36C711.144 1576.49 708.224 1579.59 706.156 1583.67C704.148 1587.68 703.145 1592.4 703.145 1597.81V1648H665.823V1579.74L658.98 1543.7H696.301L699.86 1565.42C704.361 1557.39 710.201 1551.27 717.38 1547.08C724.619 1542.82 732.618 1540.69 741.378 1540.69ZM800.611 1648V1542.15L819.226 1545.8L837.932 1542.15V1648H800.611ZM819.226 1533.66C814.907 1533.66 811.105 1532.93 807.82 1531.47C804.535 1529.95 801.98 1527.82 800.155 1525.09C798.33 1522.35 797.417 1519.15 797.417 1515.5C797.417 1511.85 798.33 1508.69 800.155 1506.01C801.98 1503.28 804.535 1501.18 807.82 1499.72C811.105 1498.2 814.907 1497.44 819.226 1497.44C823.545 1497.44 827.347 1498.2 830.632 1499.72C833.917 1501.18 836.442 1503.28 838.206 1506.01C840.031 1508.69 840.943 1511.85 840.943 1515.5C840.943 1519.15 840.031 1522.35 838.206 1525.09C836.442 1527.82 833.917 1529.95 830.632 1531.47C827.347 1532.93 823.545 1533.66 819.226 1533.66ZM942.21 1543.7H979.44V1620.26C979.44 1632.85 976.489 1643.71 970.588 1652.84C964.687 1662.02 956.353 1669.02 945.586 1673.82C934.818 1678.69 922.256 1681.12 907.9 1681.12C898.41 1681.12 889.558 1679.91 881.346 1677.47C873.194 1675.04 864.982 1671.3 856.708 1666.25V1638.05C863.947 1643.47 871.704 1647.48 879.977 1650.1C888.25 1652.71 896.797 1654.02 905.618 1654.02C917.663 1654.02 926.758 1651.41 932.902 1646.17C939.107 1640.94 942.21 1632.79 942.21 1621.72V1618.07C936.856 1623.79 930.377 1628.38 922.773 1631.85C915.169 1635.32 906.744 1637.05 897.497 1637.05C887.764 1637.05 879.034 1635.04 871.308 1631.03C863.582 1627.01 857.499 1621.35 853.058 1614.05C848.678 1606.75 846.488 1598.36 846.488 1588.87C846.488 1579.38 848.678 1570.98 853.058 1563.68C857.499 1556.38 863.582 1550.73 871.308 1546.71C879.034 1542.7 887.764 1540.69 897.497 1540.69C906.683 1540.69 915.078 1542.55 922.682 1546.26C930.286 1549.91 936.795 1554.71 942.21 1560.67V1543.7ZM910.09 1611.59C924.629 1611.59 935.731 1604.02 943.396 1588.87C935.67 1573.66 924.568 1566.06 910.09 1566.06C904.797 1566.06 900.174 1567 896.22 1568.89C892.326 1570.71 889.315 1573.36 887.186 1576.82C885.057 1580.23 883.992 1584.25 883.992 1588.87C883.992 1595.87 886.273 1601.4 890.836 1605.48C895.459 1609.55 901.877 1611.59 910.09 1611.59ZM1026.45 1603.1C1027.3 1608.88 1030.77 1613.45 1036.85 1616.79C1042.93 1620.08 1050.96 1621.72 1060.94 1621.72C1070.31 1621.72 1077.61 1620.5 1082.84 1618.07C1088.13 1615.64 1090.78 1612.17 1090.78 1607.67C1090.78 1605.23 1090.11 1603.23 1088.77 1601.64C1087.43 1600 1085.15 1598.66 1081.93 1597.63C1078.76 1596.6 1074.35 1595.8 1068.69 1595.26L1043.33 1592.88C1024.65 1591.18 1010.99 1586.98 1002.36 1580.29C993.779 1573.54 989.49 1564.17 989.49 1552.19C989.49 1542.88 992.227 1534.94 997.702 1528.37C1003.18 1521.74 1010.9 1516.72 1020.88 1513.31C1030.92 1509.85 1042.69 1508.11 1056.19 1508.11C1069.21 1508.11 1080.86 1510 1091.14 1513.77C1101.42 1517.54 1109.54 1522.84 1115.51 1529.65C1121.53 1536.46 1124.84 1544.34 1125.45 1553.28H1086.94C1086.28 1548.35 1083.17 1544.49 1077.64 1541.69C1072.16 1538.83 1064.77 1537.4 1055.46 1537.4C1046.83 1537.4 1040.04 1538.56 1035.11 1540.87C1030.25 1543.18 1027.81 1546.47 1027.81 1550.73C1027.81 1554.07 1029.34 1556.69 1032.38 1558.57C1035.42 1560.4 1040.74 1561.71 1048.35 1562.5L1075.63 1565.14C1088.59 1566.36 1098.96 1568.46 1106.75 1571.44C1114.53 1574.42 1120.19 1578.5 1123.72 1583.67C1127.25 1588.84 1129.01 1595.38 1129.01 1603.29C1129.01 1612.78 1126.15 1621.14 1120.43 1628.38C1114.72 1635.56 1106.65 1641.13 1096.25 1645.08C1085.85 1649.03 1073.84 1651.01 1060.21 1651.01C1046.16 1651.01 1033.72 1649.03 1022.89 1645.08C1012.06 1641.06 1003.6 1635.44 997.52 1628.2C991.437 1620.96 988.243 1612.59 987.939 1603.1H1026.45ZM1271.21 1610.95L1295.03 1543.7H1332.35L1293.39 1648H1255.34L1228.87 1577.83L1202.05 1648H1164L1125.12 1543.7H1162.54L1186.35 1610.77L1211.17 1543.7H1246.67L1271.21 1610.95ZM1464.69 1543.7L1458.12 1595.8L1464.69 1648H1426L1423.26 1626.92C1418.21 1634.59 1411.92 1640.52 1404.37 1644.71C1396.83 1648.91 1388.4 1651.01 1379.1 1651.01C1369 1651.01 1360.03 1648.73 1352.18 1644.17C1344.39 1639.54 1338.34 1633.07 1334.02 1624.73C1329.7 1616.34 1327.54 1606.72 1327.54 1595.9C1327.54 1585.01 1329.7 1575.4 1334.02 1567.06C1338.34 1558.67 1344.39 1552.19 1352.18 1547.62C1360.03 1543 1369 1540.69 1379.1 1540.69C1388.34 1540.69 1396.77 1542.76 1404.37 1546.89C1411.98 1551.03 1418.3 1556.9 1423.35 1564.51L1426 1543.7H1464.69ZM1390.32 1622.45C1395.25 1622.45 1399.96 1621.32 1404.46 1619.07C1409.03 1616.76 1413.01 1613.6 1416.42 1609.58C1419.89 1605.57 1422.47 1601.01 1424.17 1595.9C1422.47 1590.79 1419.89 1586.22 1416.42 1582.21C1413.01 1578.13 1409.03 1574.97 1404.46 1572.72C1399.96 1570.41 1395.25 1569.25 1390.32 1569.25C1385.45 1569.25 1381.1 1570.41 1377.27 1572.72C1373.5 1574.97 1370.55 1578.13 1368.42 1582.21C1366.29 1586.22 1365.23 1590.79 1365.23 1595.9C1365.23 1601.01 1366.29 1605.57 1368.42 1609.58C1370.55 1613.6 1373.5 1616.76 1377.27 1619.07C1381.1 1621.32 1385.45 1622.45 1390.32 1622.45ZM1556.43 1540.69C1566.53 1540.69 1575.47 1543 1583.26 1547.62C1591.1 1552.19 1597.19 1558.67 1601.51 1567.06C1605.82 1575.4 1607.98 1585.01 1607.98 1595.9C1607.98 1606.72 1605.82 1616.34 1601.51 1624.73C1597.19 1633.07 1591.1 1639.54 1583.26 1644.17C1575.47 1648.73 1566.53 1651.01 1556.43 1651.01C1547.3 1651.01 1539 1648.97 1531.52 1644.9C1524.03 1640.82 1517.77 1635.07 1512.72 1627.65V1678.11H1475.4V1543.7H1512.72V1563.68C1517.83 1556.32 1524.09 1550.67 1531.52 1546.71C1539 1542.7 1547.3 1540.69 1556.43 1540.69ZM1545.2 1622.45C1550.07 1622.45 1554.39 1621.32 1558.16 1619.07C1561.99 1616.76 1564.97 1613.6 1567.1 1609.58C1569.23 1605.57 1570.3 1601.01 1570.3 1595.9C1570.3 1590.79 1569.23 1586.22 1567.1 1582.21C1564.97 1578.13 1561.99 1574.97 1558.16 1572.72C1554.39 1570.41 1550.07 1569.25 1545.2 1569.25C1540.28 1569.25 1535.53 1570.41 1530.97 1572.72C1526.47 1574.97 1522.48 1578.13 1519.02 1582.21C1515.61 1586.22 1513.02 1590.79 1511.26 1595.9C1513.02 1601.01 1515.61 1605.57 1519.02 1609.58C1522.48 1613.6 1526.47 1616.76 1530.97 1619.07C1535.53 1621.32 1540.28 1622.45 1545.2 1622.45Z" fill="#011671"/>
</svg>
