<svg width="2000" height="2000" viewBox="0 0 2000 2000" fill="none" xmlns="http://www.w3.org/2000/svg">
<path d="M1001.33 1209.69L687.372 1050.04L1001.33 1413.65V1209.69Z" fill="#05209A"/>
<path d="M1000.56 1209.69L1314.51 1050.04L1000.56 1413.65V1209.69Z" fill="#001882"/>
<rect x="421.256" y="1603.67" width="1153.21" height="76.3338" fill="#011671"/>
<rect x="421.256" y="1473.98" width="1153.21" height="76.3338" fill="#011671"/>
<path d="M811.953 1351.27L854.224 1406.68H504.566L198 693.817L637.124 866.183L596.495 919.945L332.2 818.167L562.022 1351.27H811.953Z" fill="#011671"/>
<path d="M1143.55 1408.32L1190.34 1346.35H1439.45L1673.79 808.473L1404.57 911.483L1366.4 858.542L1801.42 693.973L1494.44 1408.32H1143.55Z" fill="#011671"/>
<path d="M1000.09 481V803.982L658.645 956.239L1000.09 481Z" fill="#05209A"/>
<path d="M1000.09 481V803.982L1341.54 956.239L1000.09 481Z" fill="#001882"/>
<path d="M1000.09 1125.55V802.572L1341.54 955.239L1000.09 1125.55Z" fill="#00125E"/>
<path d="M1000.09 1125.55V802.572L658.645 955.239L1000.09 1125.55Z" fill="#011671"/>
<path d="M213.731 639.514L198.837 694.636L143.653 679.973L131.992 578.856L213.731 639.514Z" fill="#011671"/>
<path d="M1787.15 639.514L1802.04 694.636L1857.22 679.973L1868.88 578.856L1787.15 639.514Z" fill="#011671"/>
<path d="M1064 418.411L1000 482L936 418.411L1000 271L1064 418.411Z" fill="#011671"/>
</svg>
